/* XPM */
static char *_3a6371a35eb4cfefcc4ae045f43bf5bwiTL2n4xnMSBxGrk[] = {
/* columns rows colors chars-per-pixel */
"64 64 98 2 ",
"   c #423C30",
".  c #474132",
"X  c #494333",
"o  c #4A4533",
"O  c #4D4334",
"+  c #4D4834",
"@  c #4F4834",
"#  c #524B36",
"$  c #554B37",
"%  c #574A37",
"&  c #574D38",
"*  c #584E38",
"=  c #5B5139",
"-  c #5C5439",
";  c #62513B",
":  c #61543B",
">  c #67553D",
",  c #64583D",
"<  c #655E3C",
"1  c #6B5B3E",
"2  c #68603D",
"3  c #6F653F",
"4  c #6D5E40",
"5  c #6F5E40",
"6  c #6B6140",
"7  c #6D6841",
"8  c #726141",
"9  c #716640",
"0  c #716A42",
"q  c #756942",
"w  c #776A42",
"e  c #776E45",
"r  c #7C6E44",
"t  c #797045",
"y  c #7F7045",
"u  c #7E7347",
"i  c #7F7448",
"p  c #79736F",
"a  c #807745",
"s  c #827846",
"d  c #857947",
"f  c #867B47",
"g  c #847749",
"h  c #877A48",
"j  c #887A4A",
"k  c #897B4B",
"l  c #8A7E49",
"z  c #8E814A",
"x  c #8E874E",
"c  c #90824B",
"v  c #91844C",
"b  c #91874F",
"n  c #90894F",
"m  c #95884E",
"M  c #9B904E",
"N  c #9D924F",
"B  c #8E855F",
"V  c #938850",
"C  c #938B50",
"Z  c #978E51",
"A  c #988C50",
"S  c #988E57",
"D  c #9B9153",
"F  c #9C9052",
"G  c #9D9253",
"H  c #9F9450",
"J  c #A09450",
"K  c #AA9F55",
"L  c #A89E57",
"P  c #A39A5A",
"I  c #A79F5F",
"U  c #ABA055",
"Y  c #ADA45B",
"T  c #AEA75B",
"R  c #AEA85B",
"E  c #B0A758",
"W  c #B0A85B",
"Q  c #B2AA5C",
"!  c #B3AB5C",
"~  c #B6AD5C",
"^  c #BBB45F",
"/  c #9A9469",
"(  c #918E77",
")  c #99987C",
"_  c #A6A067",
"`  c #AEAA6D",
"'  c #B0A960",
"]  c #B4AD65",
"[  c #B5AF68",
"{  c #B7B166",
"}  c #BBB463",
"|  c #BEB761",
" . c #BDB662",
".. c #B9B365",
"X. c #A5A170",
"o. c #A8A471",
"O. c #888885",
"+. c #8B8B87",
/* pixels */
"> > > > > > > > > > > > > > > > > > > > > > > > > > > > > > > > > > > > > > > > 1 ; > > > > > > > > > > > > > > > > 5 ; 5 4 4 4 ",
"> k B p S G G G G G G G G G G G G G G G G G G G G G G G G G G G G G G G G G G G G M D J G G G G G G G G J A D J S J J S p k g % ",
"> G ` ) ..| | | | | | | | | | | | | | | | | | | | | | | | | | | | | | | | | | | | | | | | | | | | | | | | | | | | | | } +.` S 4 ",
"> G | | | | | | | | | | | | | | | | | | | | | | | | | | | | | | | | | | | | | | | | | | | | | | | | | | | | | | | | | | | [ C 4 ",
"> G | | | | | | | | | | | | | | | | | | | | | | | | | | | | | | | | | | | | | | | | | | | | | | | | | | | | | | | |  . .| | G > ",
"> G | | | | | | | | | | | | | | | | | | | | | | | | | | | | | | | | | | | | | | | | | | | | | | | | | | | | | | | | |  .| | J > ",
"> G ] o.} | | | | | | | | | | | | | | | | | | | | | | | | | | | | | | | | | | | | | | | | | } ^ | | | | | | | | | |  ...o.[ J 3 ",
"> G X.O.] } ^ ^ ^ ^ ^ ^ ^ ^ ^ ^ ^ ^ ^ ^ ^ ^ ^ ^ ^ ^ ^ ^ ^ ^ ^ ^ ^ ^ ^ ^ ^ ^ ^ ^ ^ ^ ^ ^ ^ ^ ..| } | } ^ ^ ^ ^ ^ ^ ^  .] O.X.A > ",
"> v L P K K K K U U U U U U U U K K U U U U K U K K U K U U K K U K K K K K K K K U U U U U U U U K U K K K K K K K K K Z K l > ",
"O - < < r a q < < q r r 2 < 8 a u 8 < 2 r a q , < q u r 2 , 7 u a 3 < < e u q < 1 q u y < < 9 s a 9 < < r u w < 1 w a a 1 1 5 > ",
"O , 7 9 g k u 7 7 u k h 0 7 e h k e 7 0 a k a 7 3 a l g 0 3 t l k r 3 q h h u 7 2 u f h 7 7 r l k q 7 0 g k u 7 3 a j g 0 9 5 > ",
"> G | ] | | | | | | ^ | | | | | | | | | ^ |  . .| | | | | | | | | | | | | | | | | | | | | | | | | | | | | | | | |  . . ... .S > ",
"> G o.+...| | | | | | | | | | | | | | | | | | | | | | | | | | | | | | | | | | | | | | | | | | | | | | | | | | | | | | ..O.o.G > ",
"> G [ o...| | | | | | | | | | | | | | | | | | | | | | | | | | | | | | | | | | | | | | | | | | | | | | | | | | | | | | } o.[ G > ",
"> G | | | | | | | | | | | | | | | | | | | | | | | | | | | | | | | | | | | | | | | | | | | | | | | | | | | | | | | | | | | | G > ",
"> G | | | | | | | | | | | | | | | | | | | | | | | | | | | | | | | | | | | | | | | | | | | | | | | | | | | | | | | | | | | | G > ",
"> G } } | | | | | | | | | | | | | | | | | | | | | | | | | | | | | | | | | | | | | | | | | | | | | | | | | | | | | | | | | | G > ",
"> G [ ) { | | | | ^ | | | | | | | | | ^ | | | | | ^ | | | | | ^ | | | | | | | | | | | | | | | | | | | | | | | | | | | { ) ` G > ",
"> Z _ ( Q ~ ~ ~ ~ ~ ~ ~ ~ ~ ~ ~ ~ ~ ~ ~ ~ ~ ~ ~ ~ ~ ~ ~ ~ ~ ~ ~ ~ ~ ~ ~ ~ ~ ~ ~ ~ ~ ~ ~ ~ ~ ~ ~ ~ ~ ~ ~ ~ ~ ~ ~ ~ ~ ~ ' ( _ Z > ",
"; h M Z J J N G N G J G N N N N J N N M J N J N N G N G N N N J N N M N J N G M N J G J M N G J J G G A H H H M M H H H M M h > ",
"  . o @ 1 5 : o o : 1 1 # o * 1 5 * X @ < 3 ; @ X : 5 1 # o * 1 8 * o # 1 1 ; o o : 8 < @ o & 6 1 = + @ 1 6 ; o o ; 5 4 @ o # > ",
"% t x C G D Z x x D H G x n A G G C x x G G A x x M G G x n A G G n x x G G D x x m G G C x v J J m x m G G A x x Z D G C x i > ",
"> G [ o.} | | | | | | | ^ | | | | | | | | | | | | | | | | | | | | | | | | | | | | | | | | | | | ^ | | | | | | | | | | } o.[ G > ",
"> G o.O.{ | | | | | | | | | | | | | | | | | | | | | | | | | | | | | | | | | | | | | | | | | | | | | | | | | | | | | | } O.o.G > ",
"> G } { | | | | | | | | | | | | | | | | | | | | | | | | | | | | | | | | | | | | | | | | | | | | | | | | | | | | | | | ..{ } G > ",
"> G | | | | | | | | | | | | | | | | | | | | | | | | | | | | | | | | | | | | | | | | | | | | | | | | | | | | | | | | | | | | G > ",
"> G | | | | | | | | | | | | | | | | | | | | | | | | | | | | | | | | | | | | | | | | | | | | | | | | | | | | | | | | | | | | G > ",
"> G } { | | | | | | | | | | | | | | | | | | | | | | | | | | | | | | | | | | | | | | | | | | | | | | | | | | | | | | | | { } G > ",
"> G X.+.[ | ^ | | | ^ | | | ^ | | | ^ | | | ^ | | | ^ | | | ^ | | ^ | | | ^ ^ | | | | | | | | | | | | | ^ ^ | | | ^ | } +.o.G > ",
"> m Y / Y R T R E T E E E E E T E E E E E E E T E E E T E E E T E E T E Q T E E E E E E E E E E E E E E E Q E E E E T Y / _ m > ",
"% 9 i s z v l s a l c c f s f z v k u u c l l a a z z z f s f z v l a s c z c a s l c c a a f c z f f a l v z u s l v c s u q > ",
"  o @ # 1 8 , @ @ , 3 1 # @ - 8 5 - # # 3 3 > # @ > 8 1 # @ - 3 3 - @ # 1 3 , @ @ , 5 1 # @ - 8 8 - @ # 1 3 , @ @ , 3 1 # @ * > ",
"; v T T Q Q Q T T Q Q Q R R Q Q Q Q R R T ~ Q R Y ! ! ! Y E E Q Q E E Y ! ! ! Y E E ! ! W W W ! ! W Y Y Q Q Q T T Q Q Q T R m > ",
"> G ` ) ..| | | | | | | | | ^ | | | | | | | | | | | | | | | | | | | | | | | | | | | | | | | | | | | | | | | | | | | | ..) ` G > ",
"> G ` ) ..| | | | | | | | | | | | | | | | | | | | | | | | | | | | | | | | | | | | | | | | | | | | | | | | | | | | | | ..) ` G > ",
"> G | | | | | | | | | | | | | | | | | | | | | | | | | | | | | | | | | | | | | | | | | | | | | | | | | | | | | | | | | | | | G > ",
"> G | | | | | | | | | | | | | | | | | | | | | | | | | | | | | | | | | | | | | | | | | | | | ^ } | | | | | | | | | | | | | | G > ",
"> G | | | | | | | | | | | | | | | | | | | | | | | | | | | | | | | | | | | | | | | | | | | | |  .| | | | | | | | | | | | | | G > ",
"> G [ o.| | | | | | | | | | | | | | | | | | | | | ^ | | | | | | | | | | | | | | | | | | | | | | | | | ^ | | | | | | | } X.[ G > ",
"> G X.O.] ^ ^ ^ ^ ^ ^ ^ ^ ^ ^ ^ ^ ^ ^ ^ ^ ^ ^ ^ ^ } } | ^ ^ ^ ^ ^ ^ ^ ^ ^ ^ } | ^ ^ ^ ^ ^ ^  .|  .| } ^ ^ ^ ^ ^ ^ } | ] O.X.M > ",
"> v L P U K K U K K K K K K U U K K U U U U K K K K U K K K K K K K K U K U U U U U U U K K U K K K U U K K U K U U U K P K v > ",
"O - 2 2 r u q < < q a r 2 > 3 u a 3 < < r s q < < q u r 2 < 7 u r 3 < 2 r r q < < q a r < < 9 a a 7 < < r u q < < q r e 2 < , > ",
"O , 7 7 g h u 7 7 u k g q 7 e k k w 7 0 g k h 2 7 u h h 0 7 r h f r 0 0 g h u 7 7 u k g 0 7 q k k w 7 0 g k u 7 7 u k g 9 7 3 > ",
"> G } { | | | | | | | | | | | | ^ | | | | | | | | | | | | | | | | | | | | | | | | | | | | | | | | | | | | | | | | | | | [ | G > ",
"5 G o.O.{ | | | | | | | | | | | | | | | | | | | | | | | | | | | | | | | | | | | | | | | | | | | | | | | | | | | | | | ..+.o.G > ",
"> H [ o...| | | | | | | | | | | | | | | | | | | | | | | | | | | | | | | | | | | | | | | | | | | | | | | | | | | | | | } o.[ G > ",
"> S | | | | | | | | | | | | | | | | | | | | | | | | | | | | | | | | | | | | | | | | | | | | | | | | | | | | | | | | | | | | G > ",
"> G | | | | | | | | | | | | | | | | | | | | | | | | | | | | | | | | | | | | | | | | | | | | | | | | | | | | | | | | | | | | G > ",
"> G | | | | | | | | | | | | | | | | | | | | | | | | | | | | | | | | | | | | | | | | | | | | | | | | | | | | | | | | | | | | G > ",
"> G ` ) ..| | | | | | | | | | | | | | | | | | | | | | | | | | | | | | | | | | | | | | | | | | | | | | | | | | | | | | { ) ` G > ",
"> C _ ( ! ~ ~ ~ ~ ~ ~ ~ ~ ~ ~ ~ ~ ~ ~ ~ ~ ~ ~ ~ ~ ~ ~ ~ ~ ~ ~ ~ ~ ~ ~ ~ ~ ~ ~ ~ ~ ~ ~ ~ ~ ~ ~ ~ ~ ~ ~ ~ ~ ~ ~ ~ ~ ~ ~ ' ( _ Z > ",
": h M M J H D M M G G N N N N J N N N Z J J N N M J J N M M G J J N M N N H G N M J N G G M H H J J N A J N G M N N J H M N f > ",
"    o @ 1 5 ; o o : 8 1 @ o * 1 5 * o @ 1 1 : @ @ : 6 5 @ X & 5 1 & o @ 1 5 : o o : 2 1 # o # 8 3 % @ @ 1 5 ; o o ; 5 5 @ o & > ",
"% u x Z D G Z x x Z D D x x Z J G C x n N M M n x Z N G x x C G H Z n n G G A x x Z G G v x m J Z A v V D G Z x x Z D D x x i > ",
"> G ] o...| | | | | | | | | | | | | | | | | | | | | | | | | | | | | | | | | | | | | | | | | | | | | | | | | | | | | | | o.[ G > ",
"> G o.O...| | | | | | | | | | | | | | | | | | | | | | | | | | | | | | | | | | | | | | | | | | | | | | | | | | | | | | ..O.o.G > ",
"5 G } ] | | | | | | | | | | | | | | | | | | | | | | | | | | | | | | | | | | | | | | | | | | | | | | | | | | | | | | | ..{ } G > ",
"; J | | | | | | | | | | | | | | | | | | | | | | | | | | | | | | | | | | | | | | | | | | | | | | | | | | | | | | | | | | | | G > ",
"> D | | | | | | | | | | | | | | | | | | | | | | | | | | | | | | | | | | | | | | | | | | | | | | | | | | | | | | | | | | | | G > ",
"> G } } | | | | | | | | | | | | | | | | | | | | | | | | | | | | | | | | | | | | | | | | | | | | | | | | | | | | | | | | { } G > ",
"> G X.+.] | ^ | | | | ^ | | | | ^ | | | ^ ^ ^ ^ | | | | | | | | | | | | | ^ | |  .| | | | | | ^ | | | | ^ | | | | | ^ } O.o.G > ",
"> C I / T E E E E E E E Y E E E E T E E ~ E Q T E E E E E E E E E E E E T T E E E E E E E E E E E E E E E E E E E E E T / _ m > ",
"> 9 a a z z z u s z c z s a f c c l a a z c l g a l l c a f f c c f a a z z l f a l z z d a f c v f a f z c l a a l c c a i 9 % ",
"> > > > > > > > > > > > > > > > > > > > > > > > > > > > > > > > > > > > > > > > > > > > > > > > > > > > > > > > > > > > , > > > "
};
