/* XPM */
static char *_9a4162fac3047079f317d1b75c98acfkcepJ0HqRS7mmWQi[] = {
/* columns rows colors chars-per-pixel */
"32 32 6 1 ",
"  c gray47",
". c #40B080",
"X c #70C0A0",
"o c #B8A080",
"O c #E0D0A8",
"+ c #A0D0C0",
/* pixels */
"XXX.XXX+XXX.XXXXXXX.XXX+XXX.XXXX",
"XX++XXXXXXXXXXX.XX++XXXXXXXXXXX.",
"X.++XXXXXXXXXXXXX.++XXXXXXXXXXXX",
"XXXXXXXXX+XXXXXXXXXXXXXXX+XXXXXX",
"XXXXXXXXXXXX++XXXXXXXXXXXXXX++XX",
"XXXXXXXXX.XX++XXXXXXXXXXX.XX++XX",
"X+XX.XXXXXXXXXX.X+XX.XXXXXXXXXX.",
"XXXXXXXXXXXXX      XXXXXXXXXXXXX",
"XXX.XXXXXXX  OOOOOO  XXXXXX.XXX+",
"XXXXXXX.XX O o oo O o X.XX++XXXX",
"XXXXXXXXX OO oooooO oo XX.++XXXX",
"X+XXXXXX o O oooooO o o XXXXXXXX",
"XXXX++XX ooO oooooO ooo XXXXXXXX",
"X.XX++X oooO oooooO oooO XXXXXXX",
"XXXXXXX oooO oooooO oooO +XX.XXX",
"XXXXXXX oooO oooooO oooO XXXXXXX",
"XXX.XXX oooO oooooO oooO XX.XXXX",
"XX++XXX oooO oooooO oooO XXXXXX.",
"X.++XXX oooO oooooO oooO XXXXXXX",
"XXXXXXXX ooO oooooO ooo X+XXXXXX",
"XXXXXXXX o O oooooO o o XXXX++XX",
"XXXXXXXXX oO oooooO oo XX.XX++XX",
"X+XX.XXXXX O o oo O o XXXXXXXXX.",
"XXXXXXXXXXX  oooooO  XXXXXXXXXXX",
"XXX.XXXXXXX.X      .XXXXXXX.XXX+",
"XXXXXXX.XX++XXXXXXXXXXX.XX++XXXX",
"XXXXXXXXX.++XXXXXXXXXXXXX.++XXXX",
"X+XXXXXXXXXXXXXXX+XXXXXXXXXXXXXX",
"XXXX++XXXXXXXXXXXXXX++XXXXXXXXXX",
"X.XX++XXXXXXXXXXX.XX++XXXXXXXXXX",
"XXXXXXX.X+XX.XXXXXXXXXX.X+XX.XXX",
"XXXXXXXXXXXXXXXXXXXXXXXXXXXXXXXX"
};
