/* XPM */
static char *_52e503f09b7456a889b2d50f2fc6f20qYQG63DS8FycMvL6[] = {
/* columns rows colors chars-per-pixel */
"32 32 7 1 ",
"  c None",
". c black",
"X c #AF0400",
"o c #FE0000",
"O c #FB6A6A",
"+ c #B4B4B4",
"@ c white",
/* pixels */
"                                ",
"                                ",
"                                ",
"                                ",
"                                ",
"                                ",
"                                ",
"                                ",
"                                ",
"                                ",
"                                ",
"                                ",
"                                ",
"                                ",
"                                ",
"              ....              ",
"            ..oXXX..            ",
"           .ooOoXXXX.           ",
"           .oO@OooXX.           ",
"          .oooOoooXXX.          ",
"          .oooo..XXXX.          ",
"          ..oo.@@.XX..          ",
"          .@...@@...+.          ",
"           .@@@..+++.           ",
"           .+@@@@+++.           ",
"            ..++++..            ",
"              ....              ",
"                                ",
"                                ",
"                                ",
"                                ",
"                                "
};
