/* XPM */
static char *a277e2ba8fcd4505877306bc85dccfe6ND1WTHkJx4WIrfuX[] = {
/* columns rows colors chars-per-pixel */
"32 32 12 1 ",
"  c None",
". c black",
"X c #71482D",
"o c #143047",
"O c #29434F",
"+ c #89756B",
"@ c #CF966F",
"# c #68818D",
"$ c #F7CFB6",
"% c #A3C9C8",
"& c #CCE3D1",
"* c #EEEEF7",
/* pixels */
"                                ",
"              OOOOO             ",
"            OO*****OO           ",
"           O*********O          ",
"          O&**********#         ",
"         #%************#        ",
"         #******%******#        ",
"        #&*%***%********O       ",
"        #&o***#*********O       ",
"       #&o***#**%***O*&%O       ",
"       ##o***##O***O%%#O        ",
"        o&***%O****OOOOOo       ",
"        o#&**&O***%OOOOOo       ",
"         o%&&%O%**OoOOO@X       ",
"         o%%%%%o**O%O@@$X       ",
"         o%#%%%.%*.@@$$X        ",
"          .#%%#.o*.OOOO.        ",
"           .#%.oo.oo...         ",
"            o#.ooo..            ",
"             .oo@X.             ",
"             .o+@@X             ",
"            .oo+@X              ",
"            ...X@o              ",
"           .oo..Oo              ",
"           .ooo.@X              ",
"          .o.oX@@X.             ",
"          .oo.o..o.             ",
"           ....ooo.             ",
"            .  ...              ",
"                ...             ",
"                                ",
"                % %             "
};
