/* XPM */
static char *b99367b62ef54afab3adfe09297622e5DNFd5xeiJ4oYLqZN[] = {
/* columns rows colors chars-per-pixel */
"32 32 16 1 ",
"  c None",
". c black",
"X c #71482D",
"o c #462D46",
"O c #626641",
"+ c #4D4D66",
"@ c #8E6613",
"# c #D34C46",
"$ c #DC9A19",
"% c #E9E007",
"& c #CF966F",
"* c #91C151",
"= c #4294AA",
"- c #C0D898",
"; c #F7CFB6",
": c #EEEEF7",
/* pixels */
"                                ",
"             OOOOOO             ",
"           OO------OO           ",
"          O*---OO---*O          ",
"       O O*---O-O----*O O       ",
"     OO-OO*--O--O----*OO-OO     ",
"     O--*O*--O--O----*O*--O     ",
"      O--O-*--O--*--*-O---O     ",
"      O---O-&&;OO;&&-O---O      ",
"       O---*&;;;;;;&*---O       ",
"        .O*&-;;;;;;-&*O.        ",
"     O..*O*-#::;;--&:*O*..O     ",
"     .%.*O&-##:&;;.:;&O*.%.     ",
"     .%.O*X;---&;;;;;X*O.%.     ",
"     .$%X.X&;;;;;;&;&X.X%$.     ",
"     .$=%%X..;&::&;..X%%=$.     ",
"      .$$=.%%.;;;;.%%.=$$.      ",
"       ..$$=$.XXXX.$=$$..       ",
"       .+..$$X$XX$X$$..$.       ",
"      .$+$$..$OOOO$..++$+.      ",
"      .$$+$+.$O==O$.++$++.      ",
"      .$++$$.$O==O$.++$$+.      ",
"     .$++##$+.$OO$.$+##$$@.     ",
"     .$$+##+$+.$$.++$##$++.     ",
"     .$+$$++$+.$$.++$$++$+.     ",
"      .$$$$$@.oOOo.@$$+++.      ",
"      ..o$+@.oOOOOo.+@+o..      ",
"       ...XXX......XXX...       ",
"         ....      ....         ",
"                                ",
"                                ",
"                                "
};
