/* XPM */
static char *fac5b53d19c04e84ce3dcc8f7e88b056MyUomyGvFsGsaUjY[] = {
/* columns rows colors chars-per-pixel */
"32 32 7 1 ",
"  c black",
". c #404868",
"X c #C89850",
"o c #40B080",
"O c #70C0A0",
"+ c #E8E0A0",
"@ c #A0D0C0",
/* pixels */
"OOOoOOO@OOOoOOOOOOOoOOO@OOOoOOOO",
"OO@@OOOOOOOOOOOoOO@@OOOOOOOOOOOo",
"Oo@@OOOOOOOOOOOOOo@@OOOOOOOOOOOO",
"OOOOOOOOO@OOOOOOOOOOOOOOO@OOOOOO",
"OOOOOOOOOOOO@@OOOOOOOOOOOOOO@@OO",
"OOOOOOOOOoOO@@OOOOOOOOOOOoOO@@OO",
"O@OOoOOOOOOOOOOoO@OOoOOOOOOOOOOo",
"OOOOOOOOOOOOOOOOOOOOOOOOOOOOOOOO",
"OOOoOOOOOOO+.      O+.OOOOOoOOO@",
"OOOOOOOoOO@++++++++++.OoOO@@OOOO",
"OOOOOOOOOo +........+.OOOo@@OOOO",
"O@OOOOOOO  +.       +. OOOOOOOOO",
"OOOO@@OOO  +.       +. OOOOOOOOO",
"OoOO@@OO   ++++++++++.  OOOOOOOO",
"OOOOOOOO   +........+.  O@OOoOOO",
"OOOOOOOO   +.       +.  OOOOOOOO",
"OOOoOOOO   +.       X.  OOOoOOOO",
"OO@@OOOO   ++XXXXXXXX.  OOOOOOOo",
"Oo@@OOOO   +........X.  OOOOOOOO",
"OOOOOOOOO  X.       X. OO@OOOOOO",
"OOOOOOOOO  X.       X. OOOOO@@OO",
"OOOOOOOOOo XXXXXXXXXX.OOOoOO@@OO",
"O@OOoOOOOOOX........XOOOOOOOOOOo",
"OOOOOOOOOOOOO      OOOOOOOOOOOOO",
"OOOoOOOOOOOoOOOOOOOoOOOOOOOoOOO@",
"OOOOOOOoOO@@OOOOOOOOOOOoOO@@OOOO",
"OOOOOOOOOo@@OOOOOOOOOOOOOo@@OOOO",
"O@OOOOOOOOOOOOOOO@OOOOOOOOOOOOOO",
"OOOO@@OOOOOOOOOOOOOO@@OOOOOOOOOO",
"OoOO@@OOOOOOOOOOOoOO@@OOOOOOOOOO",
"OOOOOOOoO@OOoOOOOOOOOOOoO@OOoOOO",
"OOOOOOOOOOOOOOOOOOOOOOOOOOOOOOOO"
};
