/* XPM */
static char *_a3e7a91cd8e4e218917ffba4cc99d0c1BUFE5YG8ybAFI29[] = {
/* columns rows colors chars-per-pixel */
"32 32 12 1 ",
"  c None",
". c black",
"X c #71482D",
"o c #143047",
"O c #29434F",
"+ c #89756B",
"@ c #CF966F",
"# c #68818D",
"$ c #F7CFB6",
"% c #A3C9C8",
"& c #CCE3D1",
"* c #EEEEF7",
/* pixels */
"                                ",
"            OOOOOO              ",
"          OO%****%OO            ",
"         O&********&O           ",
"        O************O          ",
"       #&************&#         ",
"       #*%**********%*#         ",
"      #&O************O&#        ",
"     #&O**************O&#       ",
"     ##O***O******O***O##       ",
"      o**&O%&****&%O&**o        ",
"      o**%.OOOOOOOO.%**o        ",
"      o*&O.OOOOOOOO.O&*o        ",
"      o#&o+oOOOOOOo+o&#o        ",
"       o&.@%O@@@@O%@.&o         ",
"       O%OO@$$$$$$@OO%O         ",
"        O#.OOOOOOOO.#O          ",
"         .#.OOooOO.#.           ",
"         O.O.oOOo.O.O           ",
"          OX+....+XO            ",
"           X@.oo.@X             ",
"          X@+....+@X            ",
"          X@......@X            ",
"          oOo....oOo            ",
"         .o@+X..X+@o.           ",
"         .o@@.oo.@@o.           ",
"         .oo.o..o.oo.           ",
"          .oo.  .oo.            ",
"           .o.  .o.             ",
"           ..    ..             ",
"                                ",
"                                "
};
