/* XPM */
static char *_cbcd906fed94d6ee47a9b4ae0e1f83bonWajSfyZKMwdJfv[] = {
/* columns rows colors chars-per-pixel */
"32 32 12 1 ",
"  c None",
". c black",
"X c #71482D",
"o c #143047",
"O c #29434F",
"+ c #89756B",
"@ c #CF966F",
"# c #68818D",
"$ c #F7CFB6",
"% c #A3C9C8",
"& c #CCE3D1",
"* c #EEEEF7",
/* pixels */
"                                ",
"             OOOOO              ",
"           OO*****OO            ",
"          O*********O           ",
"         #**********&O          ",
"        #************%#         ",
"        #******%******#         ",
"       O********%***%*&#        ",
"       O*********#***o&#        ",
"       O%&*O***%**#***o&#       ",
"        O#%%O***O##***o##       ",
"       oOOOOO****O%***&o        ",
"       oOOOOO%***O&**&#o        ",
"       X@OOOoO**%O%&&%o         ",
"       X$@@O%O**o%%%%%o         ",
"        X$$@@.*%.%%%#%o         ",
"        .OOOO.*o.#%%#.          ",
"         ...oo.oo.%#.           ",
"            ..ooo.#o            ",
"             .X@oo.             ",
"             X@@+o.             ",
"              X@+oo.            ",
"              o@X...            ",
"              oO..oo.           ",
"              X@.ooo.           ",
"             .X@@Xo.o.          ",
"             .o..o.oo.          ",
"             .ooo....           ",
"              ...  .            ",
"             ...                ",
"                                ",
"                                "
};
