/* XPM */
static char *b2eb0be6e2244b6ddee04d1a4d8ac31344OQUunuFVwcnPES[] = {
/* columns rows colors chars-per-pixel */
"32 32 8 1 ",
"  c #403830",
". c #385000",
"X c #685858",
"o c #388830",
"O c #40B080",
"+ c #70C0A0",
"@ c #B0F880",
"# c #A0D0C0",
/* pixels */
"+++O+++#+++oooooooooo++#+++O++++",
"++##++++ooo@@o@@@@o@@ooo+++++++O",
"+O##+++o+@@@o@@++@@o@@@+o+++++++",
"++++++o@@#+oo@+@@+@oo++@@o++++++",
"++++o ++@@o+@@@++@@@+o@@++ o##++",
"+++  +@@@@ +##@@@@+++ @@@@+  #++",
"+# +o@@@@++  ++O+#+  ++@@@@o+ +O",
"+o+@oo@@@+++oo++++oo+++@@@oo@+o+",
"+ oOo++@@@+O+o    oO++@@@++o+o #",
"+ @@o++O+@@@++oooo++@@@O++#o@@ +",
"o+@@o +o@@@@@++++++@@@@@oO o@@+o",
" #@++o o+@@@++@@@@++@@@+o o++@+ ",
" o++## oo+++o+@@@@+o##+oo ++++o ",
"+ o+##o oooo o+++Oo oooo o+++o +",
"+ o++++o     oooooo     o#++Oo +",
"+.oo+++++oooo oooo oooo+++++oo.+",
"++.ooo #+++O+o    oO+++#+ ooo.++",
"++#.o ooo++o+++oo+##o++ooo o.++O",
"+O##. oooooooo+++Ooooooooo .++++",
"++++++ oooo oooooooo oooo ++++++",
"+++++++.ooo oooooooo ooo.+++##++",
"++++++++  .  oooooo  .  +O++##++",
"+#++O+X..   X .... X   ..X+++++O",
"+++++oXX...XXX    XXX...XXo+++++",
"+++Oo..X  X X      X X  X..o+++#",
"++++o.....XXXXX  XXXXX.....o++++",
"++++o....X XXXXXXXXXX X....o++++",
"+#++o.....XXX XXXX XXX.....o++++",
"++++#o...XX .. XX .. XX...o+++++",
"+O++##o........XX........o++++++",
"+++++++ooo.....  .....ooo#++O+++",
"++++++++++oooooooooooo++++++++++"
};
